<?xml version="1.0" encoding="UTF-8"?>
<svg xmlns="http://www.w3.org/2000/svg" xmlns:xlink="http://www.w3.org/1999/xlink" width="578.56pt" height="831.15pt" viewBox="0 0 578.56 831.15" version="1.1">
<defs>
<clipPath id="clip1">
  <path d="M 17 539 L 563 539 L 563 831.148438 L 17 831.148438 Z M 17 539 "/>
</clipPath>
<clipPath id="clip2">
  <path d="M 19 0 L 578.558594 0 L 578.558594 340 L 19 340 Z M 19 0 "/>
</clipPath>
</defs>
<g id="surface1">
<g clip-path="url(#clip1)" clip-rule="nonzero">
<path style=" stroke:none;fill-rule:nonzero;fill:rgb(50.193787%,49.804688%,51.367188%);fill-opacity:1;" d="M 185.953125 730.636719 C 189.847656 730.636719 191.878906 730.75 194.035156 728.738281 C 195.734375 727.171875 195.742188 724.382813 195.742188 721.179688 C 195.742188 719.320313 195.707031 713.007813 195.707031 713.007813 L 186.71875 713.007813 C 180.679688 713.089844 179.691406 716.828125 179.691406 720.085938 C 179.691406 721.335938 179.664063 730.644531 179.664063 730.644531 C 179.664063 730.644531 184.285156 730.636719 185.953125 730.636719 M 195.742188 830.636719 L 195.710938 737.714844 L 186.753906 737.664063 C 180.730469 737.753906 179.699219 741.535156 179.699219 744.789063 L 179.699219 830.636719 Z M 552.613281 816.730469 C 540.433594 816.730469 535.910156 816.179688 535.910156 807.289063 L 535.910156 752.542969 L 550.066406 752.542969 C 555.160156 752.542969 558.792969 750.183594 558.792969 745.097656 C 558.792969 740.019531 555.160156 737.660156 550.066406 737.660156 L 535.910156 737.660156 L 535.910156 712.972656 L 529.074219 712.953125 C 527.714844 712.980469 526.773438 713.027344 525.738281 713.152344 C 519.261719 713.84375 519.90625 720.140625 519.90625 720.140625 L 519.90625 737.660156 L 515.539063 737.660156 C 510.476563 737.660156 506.820313 740.019531 506.820313 745.097656 C 506.820313 750.183594 510.476563 752.542969 515.539063 752.542969 L 519.90625 752.542969 L 519.90625 810.730469 C 519.90625 830.347656 533.542969 830.601563 552.613281 830.601563 C 555.765625 830.601563 562.066406 830.574219 562.066406 830.574219 C 562.066406 830.574219 562.058594 826.257813 562.058594 824.183594 C 562.058594 819.644531 558.425781 816.730469 552.613281 816.730469 M 156.46875 816.730469 C 144.285156 816.730469 139.757813 816.179688 139.757813 807.289063 L 139.757813 752.542969 L 153.921875 752.542969 C 159.007813 752.542969 162.648438 750.183594 162.648438 745.097656 C 162.648438 740.019531 159.007813 737.660156 153.921875 737.660156 L 139.757813 737.660156 L 139.757813 712.972656 L 132.921875 712.953125 C 131.566406 712.980469 130.628906 713.027344 129.59375 713.152344 C 123.109375 713.84375 123.753906 720.140625 123.753906 720.140625 L 123.753906 737.660156 L 119.394531 737.660156 C 114.324219 737.660156 110.660156 740.019531 110.660156 745.097656 C 110.660156 750.183594 114.324219 752.542969 119.394531 752.542969 L 123.753906 752.542969 L 123.753906 810.730469 C 123.753906 830.347656 137.398438 830.601563 156.46875 830.601563 C 159.617188 830.601563 165.914063 830.574219 165.914063 830.574219 C 165.914063 830.574219 165.90625 826.257813 165.90625 824.183594 C 165.90625 819.644531 162.28125 816.730469 156.46875 816.730469 M 408.386719 712.433594 L 399.429688 712.433594 C 391.65625 712.433594 392.375 719.480469 392.375 719.480469 L 392.375 805.863281 L 392.335938 830.617188 L 408.386719 830.65625 Z M 498.234375 770.367188 C 498.234375 754.175781 493.859375 737.621094 469.855469 737.621094 L 436.195313 737.621094 C 430.921875 737.621094 427.46875 739.988281 427.46875 745.074219 C 427.46875 750.175781 430.921875 752.542969 436.195313 752.542969 L 467.496094 752.542969 C 478.59375 752.542969 482.230469 755.097656 482.230469 762.90625 L 482.230469 765.28125 C 481.578125 770.046875 476.207031 771.171875 473.496094 771.8125 C 451.011719 777.09375 420.75 771.296875 420.75 803.660156 C 420.75 820.925781 435.46875 831.125 455.675781 831.125 C 455.902344 831.125 475.953125 832.113281 483.335938 821.988281 C 483.335938 821.988281 483.335938 822.296875 483.390625 822.863281 C 483.882813 827.964844 486.304688 830.648438 491.523438 830.648438 L 498.183594 830.648438 Z M 482.230469 797.28125 C 482.230469 813.105469 473.316406 818.753906 458.207031 818.753906 C 444.570313 818.753906 436.75 813.847656 436.75 802.925781 C 436.75 794.808594 443.65625 789.558594 451.894531 788.105469 C 460.132813 786.644531 472.6875 786.089844 482.230469 783.902344 Z M 376.683594 770.367188 C 376.683594 754.175781 372.316406 737.621094 348.324219 737.621094 L 314.660156 737.621094 C 309.378906 737.621094 305.925781 739.988281 305.925781 745.074219 C 305.925781 750.175781 309.378906 752.542969 314.660156 752.542969 L 345.953125 752.542969 C 357.050781 752.542969 360.691406 755.097656 360.691406 762.90625 L 360.691406 765.28125 C 360.046875 770.046875 354.65625 771.171875 351.957031 771.8125 C 329.480469 777.09375 299.207031 771.296875 299.207031 803.660156 C 299.207031 820.925781 313.925781 831.125 334.132813 831.125 C 334.363281 831.125 354.414063 832.113281 361.800781 821.988281 C 361.800781 821.988281 361.800781 822.296875 361.851563 822.863281 C 362.347656 827.964844 364.773438 830.648438 369.988281 830.648438 L 376.636719 830.648438 Z M 360.691406 797.28125 C 360.691406 813.105469 351.785156 818.753906 336.664063 818.753906 C 323.03125 818.753906 315.21875 813.847656 315.21875 802.925781 C 315.21875 794.808594 322.117188 789.558594 330.363281 788.105469 C 338.597656 786.644531 351.15625 786.089844 360.691406 783.902344 Z M 274.0625 737.660156 C 279.148438 737.660156 282.796875 740.023438 282.796875 745.109375 C 282.796875 750.210938 279.148438 752.570313 274.0625 752.570313 L 236.761719 752.570313 C 228.9375 753.164063 227.953125 761.019531 228.589844 765.867188 C 228.800781 767.445313 229.542969 768.777344 230.636719 769.699219 C 233.078125 771.765625 237.300781 772.5 241.683594 773.257813 L 270.054688 778.246094 C 284.972656 780.972656 290.601563 788.539063 290.601563 802.003906 C 290.601563 822.925781 277.703125 830.667969 257.507813 830.667969 L 210.382813 830.667969 C 210.382813 830.667969 210.390625 825.46875 210.390625 823.207031 C 210.390625 818.128906 213.851563 815.761719 219.136719 815.761719 L 256.410156 815.761719 C 270.96875 815.761719 274.714844 811.285156 274.699219 803.277344 C 274.683594 796.019531 272.683594 793.359375 262.960938 791.71875 L 234.222656 786.980469 C 219.671875 784.621094 213.355469 776.972656 212.570313 767.214844 C 211.417969 752.90625 217.347656 737.660156 236.957031 737.660156 Z M 87.210938 786.871094 L 33.671875 792.359375 C 35.785156 809.257813 48.398438 815.585938 61.839844 815.617188 L 96.152344 815.617188 C 101.042969 815.617188 104.285156 818.90625 104.285156 823.609375 C 104.285156 825.871094 104.277344 830.46875 104.277344 830.46875 L 61.496094 830.46875 C 37.632813 830.46875 17.589844 814.949219 17.589844 783.148438 C 17.589844 756.042969 36.546875 737.617188 63.472656 737.617188 C 82.8125 737.617188 98.519531 749.429688 102.789063 767.246094 C 105.371094 778.070313 99.523438 785.484375 87.210938 786.871094 M 77.324219 774.722656 C 81.644531 774.226563 84.851563 773.433594 86.40625 771.867188 C 87.972656 770.308594 87.800781 767.109375 86.773438 764.675781 C 83.480469 756.976563 74.617188 751.367188 63.292969 751.367188 C 45.957031 751.367188 33.726563 762.527344 33.726563 779.605469 C 33.726563 779.605469 75.171875 774.96875 77.324219 774.722656 M 229.78125 556.765625 L 229.773438 556.15625 C 229.773438 550.601563 230.84375 550.121094 231.710938 549.730469 C 231.71875 549.730469 237.789063 546.96875 237.789063 546.96875 C 237.824219 546.960938 245.320313 542.804688 245.824219 542.519531 C 245.980469 542.90625 246.09375 543.53125 246.09375 544.839844 L 246.09375 606.765625 C 246.09375 662.445313 220.296875 678.363281 218.246094 679.546875 L 193.679688 679.546875 C 202.148438 673.839844 209.429688 667.464844 214.933594 660.320313 L 215.355469 659.765625 L 215.339844 658.777344 L 186.113281 593.769531 C 186.039063 593.621094 182.054688 584.695313 182.054688 574.484375 C 182.054688 567.445313 184.121094 559.878906 190.472656 554.039063 C 190.53125 554.800781 190.585938 555.519531 190.585938 555.519531 C 191.164063 561.632813 192.710938 572.640625 196.988281 581.226563 C 197.175781 581.585938 214.964844 615.671875 221.992188 632.800781 L 224.125 639.265625 L 225.285156 642.785156 L 226.386719 639.339844 L 226.941406 637.550781 C 229.324219 629.960938 229.726563 624.203125 229.773438 621.519531 L 229.78125 621.519531 C 229.78125 621.519531 229.804688 620.882813 229.804688 620.773438 L 229.804688 619.597656 L 229.78125 619.589844 Z M 246.933594 540.128906 L 246.933594 540.121094 Z M 150.050781 660.605469 L 150.050781 622.242188 C 150.050781 616.707031 151.167969 616.191406 151.984375 615.816406 L 158.066406 613.058594 C 158.089844 613.039063 165.691406 608.828125 166.164063 608.574219 C 166.265625 608.910156 166.363281 609.472656 166.363281 610.886719 L 166.378906 664.394531 C 166.378906 668.214844 164.394531 672.53125 161.324219 675.390625 C 156.898438 679.488281 152.035156 679.480469 148.824219 679.453125 L 58.699219 679.480469 C 57.164063 679.453125 43.335938 678.820313 35.253906 664.964844 C 31.71875 658.882813 29.945313 651.917969 29.945313 644.144531 C 29.945313 638.683594 30.8125 632.828125 32.574219 626.601563 C 33.972656 621.964844 35.253906 619.996094 36.144531 619.066406 C 36.207031 619.578125 36.265625 620.054688 36.378906 620.820313 C 36.398438 620.949219 38.722656 638.96875 42.863281 646.546875 C 50.0625 662.914063 71.078125 661.789063 71.28125 661.757813 C 71.085938 661.773438 148.875 661.789063 148.875 661.789063 L 150.050781 661.789063 Z M 167.210938 606.222656 C 167.21875 606.222656 167.226563 606.222656 167.234375 606.230469 L 167.203125 606.214844 Z M 492.984375 596.824219 C 492.984375 596.824219 492.910156 596.082031 492.910156 595.421875 C 492.910156 594.890625 492.96875 594.441406 493.121094 594.414063 C 493.03125 594.457031 491 595.574219 490.949219 595.617188 C 490.949219 595.617188 484.777344 599.035156 484.746094 599.046875 L 478.664063 601.796875 C 477.890625 602.171875 476.898438 602.621094 476.746094 607.226563 L 476.695313 608.394531 L 476.695313 661.785156 L 430.152344 661.785156 L 430.160156 613.820313 C 430.160156 606.496094 428.414063 601.289063 424.8125 597.910156 C 421.171875 594.480469 415.5625 592.988281 408.042969 593.453125 C 407.628906 593.429688 366.667969 592.113281 334.339844 618.851563 L 328.265625 625.765625 L 326.164063 628.484375 L 324.964844 625.28125 C 323.773438 622.148438 321.820313 619.054688 318.679688 615.300781 C 318.679688 615.300781 316.660156 613.101563 316.636719 613.078125 C 316.636719 613.078125 315.789063 612.351563 314.957031 611.632813 C 315.199219 613.871094 315.691406 619.199219 315.691406 626.386719 L 315.691406 661.019531 L 289.46875 661.042969 L 289.46875 541.683594 C 289.46875 539.757813 289.296875 539.113281 289.582031 539.085938 C 289.582031 539.085938 287.417969 540.269531 287.351563 540.3125 C 287.351563 540.3125 281.1875 543.738281 281.15625 543.757813 L 275.074219 546.515625 C 274.257813 546.882813 273.140625 547.390625 273.140625 552.933594 L 273.132813 660.128906 C 272.945313 666.152344 273.179688 668.996094 276.289063 673.035156 C 277.933594 675.183594 281.011719 679.175781 289.859375 679.175781 L 314.964844 679.175781 L 314.949219 680.996094 C 314.84375 689.902344 310.171875 705.074219 310.074219 705.375 C 310.074219 705.375 309.886719 705.914063 309.714844 706.378906 C 311.210938 705.464844 313.445313 703.855469 316.058594 701.503906 C 323.261719 692.957031 326.6875 685.300781 328.289063 680.386719 L 328.679688 679.175781 L 437.304688 679.175781 L 474.550781 679.152344 C 474.632813 679.167969 481.882813 679.59375 486.433594 676.222656 C 491.359375 672.554688 493.007813 669.671875 493.007813 659.867188 C 493.007813 659.867188 492.96875 625.488281 492.96875 615.667969 C 492.96875 614.027344 492.976563 597.175781 492.984375 596.824219 M 413.390625 661.042969 L 331.5625 661.042969 L 331.683594 659.753906 C 331.734375 659.289063 336.828125 613.289063 402.65625 611.046875 C 405.9375 610.957031 408.550781 611.902344 410.417969 613.863281 C 413.675781 617.242188 413.414063 622.417969 413.390625 622.851563 "/>
</g>
<path style=" stroke:none;fill-rule:nonzero;fill:rgb(76.171875%,80.46875%,13.719177%);fill-opacity:1;" d="M 197.328125 430.414063 C 187.882813 430.414063 179.816406 428.894531 173.652344 425.695313 C 143.796875 410.257813 120.136719 335.726563 120.554688 259.113281 C 120.75 209.101563 152.433594 181.546875 199.917969 181.546875 C 225.265625 181.546875 255.15625 189.425781 287.136719 205.941406 C 378.988281 253.359375 402.625 327.90625 340.265625 372.539063 C 290.816406 408.019531 233.726563 430.414063 197.328125 430.414063 M 185.695313 104.664063 C 172.070313 104.664063 159.75 106.371094 149.152344 109.914063 C 107.855469 122.609375 91.515625 161.152344 94.707031 214.765625 C 97.929688 268.304688 114.511719 323.878906 126.832031 364.285156 C 140.402344 405.300781 149.664063 431.171875 166.511719 439.835938 C 171.578125 442.449219 177.496094 443.605469 184.453125 443.605469 C 200.59375 443.605469 222.214844 437.335938 251.097656 428.464844 C 291.160156 415.121094 346.089844 396.449219 391.628906 368.039063 C 437.175781 339.660156 459.1875 303.992188 445.640625 262.976563 C 433.246094 222.601563 385.382813 176.769531 319.839844 142.953125 C 271.589844 118.039063 223.636719 104.664063 185.695313 104.664063 M 19.179688 58.4375 C -4.421875 89.167969 -5.003906 139.738281 10.679688 202.371094 C 32.691406 290.636719 70.734375 379.804688 88.460938 439.363281 C 108.878906 500.257813 109.011719 531.511719 116.929688 535.59375 C 117.703125 535.992188 118.621094 536.171875 119.746094 536.171875 C 130.144531 536.171875 156.378906 519.886719 211.871094 503.097656 C 270.660156 483.070313 365.40625 462.425781 450.140625 429.335938 C 509.789063 405.988281 550.550781 376.496094 562.316406 339.824219 C 543.367188 365.453125 508.710938 386.980469 462.925781 404.886719 C 378.171875 437.980469 283.460938 458.636719 224.640625 478.640625 C 169.171875 495.449219 142.980469 511.746094 132.546875 511.746094 C 131.414063 511.746094 130.472656 511.53125 129.6875 511.132813 C 121.777344 507.050781 121.648438 475.855469 101.203125 414.894531 C 83.472656 355.386719 45.476563 266.191406 23.433594 177.921875 C 11.40625 129.808594 8.949219 88.800781 19.179688 58.4375 "/>
<g clip-path="url(#clip2)" clip-rule="nonzero">
<path style=" stroke:none;fill-rule:nonzero;fill:rgb(47.068787%,63.476563%,18.431091%);fill-opacity:1;" d="M 120.117188 0.00390625 C 102.175781 0.00390625 86.296875 2.199219 73.054688 6.707031 C 45.074219 15.1875 27.703125 33.117188 19.179688 58.441406 C 28.851563 45.859375 42.394531 36.59375 60.261719 31.199219 C 73.558594 26.65625 89.472656 24.472656 107.472656 24.472656 C 169.089844 24.472656 255.078125 50.230469 343.855469 96.0625 C 458.605469 155.308594 543.308594 230.207031 561 289.722656 C 567.066406 307.757813 567.226563 324.429688 562.3125 339.828125 C 578.414063 318.035156 583.164063 293.292969 573.777344 265.28125 C 556.09375 205.78125 471.355469 130.898438 356.632813 71.652344 C 267.800781 25.753906 181.726563 0.00390625 120.117188 0.00390625 "/>
<path style=" stroke:none;fill-rule:nonzero;fill:rgb(70.117188%,78.90625%,54.492188%);fill-opacity:1;" d="M 120.117188 0.00390625 C 102.175781 0.00390625 86.296875 2.199219 73.054688 6.707031 C 45.074219 15.1875 27.703125 33.117188 19.179688 58.441406 C 28.851563 45.859375 42.394531 36.59375 60.261719 31.199219 C 73.558594 26.65625 89.472656 24.472656 107.472656 24.472656 C 169.089844 24.472656 255.078125 50.230469 343.855469 96.0625 C 458.605469 155.308594 543.308594 230.207031 561 289.722656 C 567.066406 307.757813 567.226563 324.429688 562.3125 339.828125 C 578.414063 318.035156 583.164063 293.292969 573.777344 265.28125 C 556.09375 205.78125 471.355469 130.898438 356.632813 71.652344 C 267.800781 25.753906 181.726563 0.00390625 120.117188 0.00390625 "/>
</g>
<path style=" stroke:none;fill-rule:nonzero;fill:rgb(47.068787%,63.476563%,18.431091%);fill-opacity:1;" d="M 184.457031 443.609375 C 177.503906 443.609375 171.574219 442.441406 166.511719 439.832031 C 149.664063 431.171875 140.402344 405.296875 126.835938 364.277344 C 114.515625 323.882813 97.925781 268.3125 94.710938 214.761719 C 91.519531 161.148438 107.855469 122.613281 149.15625 109.917969 C 159.753906 106.375 172.074219 104.667969 185.691406 104.667969 C 223.628906 104.667969 271.59375 118.039063 319.84375 142.957031 C 385.386719 176.773438 433.242188 222.605469 445.644531 262.96875 C 459.1875 303.996094 437.179688 339.65625 391.621094 368.042969 C 346.089844 396.453125 291.15625 415.128906 251.09375 428.460938 C 222.21875 437.339844 200.589844 443.609375 184.457031 443.609375 M 107.480469 24.472656 C 89.476563 24.472656 73.5625 26.660156 60.265625 31.207031 C 42.402344 36.59375 28.847656 45.859375 19.183594 58.441406 C 8.953125 88.804688 11.410156 129.8125 23.429688 177.925781 C 45.476563 266.195313 83.476563 355.386719 101.207031 414.890625 C 121.652344 475.859375 121.78125 507.054688 129.691406 511.136719 C 130.46875 511.535156 131.414063 511.746094 132.542969 511.746094 C 142.976563 511.746094 169.164063 495.445313 224.640625 478.644531 C 283.453125 458.640625 378.167969 437.984375 462.929688 404.878906 C 508.714844 386.984375 543.371094 365.445313 562.320313 339.828125 C 567.226563 324.429688 567.070313 307.757813 561.003906 289.734375 C 543.3125 230.207031 458.601563 155.3125 343.863281 96.0625 C 255.085938 50.230469 169.09375 24.472656 107.480469 24.472656 "/>
<path style=" stroke:none;fill-rule:nonzero;fill:rgb(50.193787%,49.804688%,51.367188%);fill-opacity:1;" d="M 483.589844 579.402344 C 487.523438 579.402344 489.574219 579.515625 491.738281 577.5 C 493.445313 575.90625 493.453125 573.105469 493.453125 569.875 C 493.453125 568.011719 493.445313 561.671875 493.445313 561.671875 L 484.363281 561.671875 C 478.316406 561.753906 477.304688 565.496094 477.304688 568.78125 C 477.304688 570.054688 477.3125 579.410156 477.3125 579.410156 C 477.3125 579.410156 481.933594 579.402344 483.589844 579.402344 M 462.445313 579.402344 C 466.359375 579.402344 468.402344 579.515625 470.574219 577.5 C 472.28125 575.90625 472.289063 573.105469 472.289063 569.875 C 472.289063 568.011719 472.28125 561.671875 472.28125 561.671875 L 463.203125 561.671875 C 457.144531 561.753906 456.132813 565.496094 456.132813 568.78125 C 456.132813 570.054688 456.140625 579.410156 456.140625 579.410156 C 456.140625 579.410156 460.769531 579.402344 462.441406 579.402344 M 108.351563 608.238281 C 112.269531 608.238281 114.3125 608.34375 116.484375 606.328125 C 118.1875 604.753906 118.1875 601.9375 118.1875 598.703125 L 118.1875 590.503906 L 109.109375 590.503906 C 103.046875 590.589844 102.058594 594.328125 102.058594 597.617188 L 102.058594 608.238281 Z M 87.175781 608.238281 C 91.101563 608.238281 93.144531 608.34375 95.316406 606.328125 C 97.011719 604.753906 97.023438 601.9375 97.023438 598.703125 C 97.023438 596.859375 97.011719 590.503906 97.011719 590.503906 L 87.945313 590.503906 C 81.878906 590.589844 80.882813 594.328125 80.882813 597.617188 C 80.882813 598.890625 80.890625 608.238281 80.890625 608.238281 Z M 520.953125 643.542969 L 520.9375 555.621094 C 520.96875 550.0625 522.019531 549.582031 522.871094 549.1875 L 528.960938 546.4375 C 529.003906 546.421875 537.402344 541.753906 537.402344 541.753906 C 537.273438 541.769531 537.238281 541.90625 537.238281 542.234375 C 537.238281 542.628906 537.277344 543.253906 537.277344 544.242188 L 537.277344 598.421875 L 537.296875 598.4375 L 537.296875 679.246094 L 520.953125 679.246094 "/>
</g>
</svg>
